<?xml version="1.0" encoding="UTF-8" standalone="no" ?>
<!DOCTYPE svg PUBLIC "-//W3C//DTD SVG 1.1//EN" "http://www.w3.org/Graphics/SVG/1.1/DTD/svg11.dtd">
<svg xmlns="http://www.w3.org/2000/svg" xmlns:xlink="http://www.w3.org/1999/xlink" version="1.1" width="350" height="350" viewBox="0 0 350 350" xml:space="preserve">
<desc>Created with Fabric.js 1.7.22</desc>
<defs>
</defs>
<g id="icon" style="stroke: none; stroke-width: 1; stroke-dasharray: none; stroke-linecap: butt; stroke-linejoin: miter; stroke-miterlimit: 10; fill: none; fill-rule: nonzero; opacity: 1;" transform="translate(-1.9444444444444287 -1.9444444444444287) scale(3.89 3.89)" >
	<path d="M 79.242 26.448 v 59.355 c 0 2.318 -1.879 4.198 -4.198 4.198 H 14.956 c -2.318 0 -4.198 -1.879 -4.198 -4.198 V 26.448 C 34.002 20.714 56.846 20.495 79.242 26.448 z" style="stroke: none; stroke-width: 1; stroke-dasharray: none; stroke-linecap: butt; stroke-linejoin: miter; stroke-miterlimit: 10; fill: rgb(64,89,107); fill-rule: nonzero; opacity: 1;" transform=" matrix(1 0 0 1 0 0) " stroke-linecap="round" />
	<path d="M 86.288 10.071 H 56.909 h -1.984 H 3.712 c -1.796 0 -3.252 1.456 -3.252 3.252 v 9.873 c 0 1.796 1.456 3.252 3.252 3.252 h 51.007 h 1.488 h 30.081 c 1.796 0 3.252 -1.456 3.252 -3.252 v -9.873 C 89.539 11.527 88.084 10.071 86.288 10.071 z" style="stroke: none; stroke-width: 1; stroke-dasharray: none; stroke-linecap: butt; stroke-linejoin: miter; stroke-miterlimit: 10; fill: rgb(55,79,96); fill-rule: nonzero; opacity: 1;" transform=" matrix(1 0 0 1 0 0) " stroke-linecap="round" />
	<polyline points="45,28.63 35.29,38.34 35.26,30.11 27.04,30.08 35.6,21.52 54.4,21.52 62.96,30.08 54.74,30.11 54.71,38.34 45,28.63 " style="stroke: none; stroke-width: 1; stroke-dasharray: none; stroke-linecap: butt; stroke-linejoin: miter; stroke-miterlimit: 10; fill: rgb(255,112,88); fill-rule: nonzero; opacity: 1;" transform="  matrix(1 0 0 1 0 0) "/>
	<path d="M 47.961 8.86 C 55.764 4.468 65.301 1.712 75.943 0 l -1.98 6.506 l 6.157 5.223 c -8.103 0.196 -16.565 2.097 -25.291 5.243" style="stroke: none; stroke-width: 1; stroke-dasharray: none; stroke-linecap: butt; stroke-linejoin: miter; stroke-miterlimit: 10; fill: rgb(255,112,88); fill-rule: nonzero; opacity: 1;" transform=" matrix(1 0 0 1 0 0) " stroke-linecap="round" />
	<path d="M 42.04 8.861 C 34.237 4.468 24.699 1.712 14.057 0 l 1.98 6.506 l -6.157 5.223 c 8.073 0.195 16.503 2.083 25.194 5.208" style="stroke: none; stroke-width: 1; stroke-dasharray: none; stroke-linecap: butt; stroke-linejoin: miter; stroke-miterlimit: 10; fill: rgb(255,112,88); fill-rule: nonzero; opacity: 1;" transform=" matrix(1 0 0 1 0 0) " stroke-linecap="round" />
	<circle cx="45.004999999999995" cy="18.335" r="9.925" style="stroke: none; stroke-width: 1; stroke-dasharray: none; stroke-linecap: butt; stroke-linejoin: miter; stroke-miterlimit: 10; fill: rgb(231,78,58); fill-rule: nonzero; opacity: 1;" transform="  matrix(1 0 0 1 0 0) "/>
	<path d="M 37.339 48.251 c -0.095 0 -0.189 0.002 -0.284 0.005 c -2.124 0.074 -4.043 0.961 -5.403 2.498 c -2.924 3.303 -1.819 10.031 2.572 15.651 c 2.126 2.721 7.303 7.117 10.775 9.188 c 3.473 -2.072 8.65 -6.468 10.775 -9.188 c 4.391 -5.62 5.496 -12.349 2.572 -15.651 c -1.36 -1.537 -3.28 -2.425 -5.404 -2.498 c -2.543 -0.083 -5.117 1.016 -7.242 3.105 L 45 52.051 l -0.701 -0.689 C 42.252 49.349 39.791 48.251 37.339 48.251 z" style="stroke: none; stroke-width: 1; stroke-dasharray: none; stroke-linecap: butt; stroke-linejoin: miter; stroke-miterlimit: 10; fill: rgb(255,112,88); fill-rule: nonzero; opacity: 1;" transform=" matrix(1 0 0 1 0 0) " stroke-linecap="round" />
</g>
</svg>